<mxfile host="app.diagrams.net" modified="2023-12-02T13:03:15.366Z" agent="Mozilla/5.0 (Windows NT 10.0; Win64; x64) AppleWebKit/537.36 (KHTML, like Gecko) Chrome/119.0.0.0 Safari/537.36 Edg/119.0.0.0" etag="-d-2Iy-jdoEZJLhrjCT5" version="22.1.5" type="device" pages="3">
  <diagram name="Page-1" id="V2b_Z5RG5mIGSToupVvR">
    <mxGraphModel dx="1084" dy="628" grid="1" gridSize="10" guides="1" tooltips="1" connect="1" arrows="1" fold="1" page="1" pageScale="1" pageWidth="850" pageHeight="1100" math="0" shadow="0">
      <root>
        <mxCell id="0" />
        <mxCell id="1" parent="0" />
        <mxCell id="Dptyboa4_etvm0j7TFrH-27" value="&lt;span style=&quot;font-size: 16px;&quot;&gt;&lt;b&gt;VIEWS&lt;br&gt;&lt;/b&gt;&lt;/span&gt;- Displays the screen to the user" style="rounded=1;whiteSpace=wrap;html=1;absoluteArcSize=1;arcSize=14;strokeWidth=1;" vertex="1" parent="1">
          <mxGeometry x="500" y="660" width="257.5" height="100" as="geometry" />
        </mxCell>
        <mxCell id="Dptyboa4_etvm0j7TFrH-28" value="&lt;b&gt;&lt;font style=&quot;font-size: 16px;&quot;&gt;CONTROLLER&lt;br&gt;&lt;/font&gt;&lt;/b&gt;- Process logic flows to display to the user and interact with the services&lt;b&gt;&lt;font style=&quot;font-size: 16px;&quot;&gt;&lt;br&gt;&lt;/font&gt;&lt;/b&gt;" style="rounded=1;whiteSpace=wrap;html=1;absoluteArcSize=1;arcSize=14;strokeWidth=1;" vertex="1" parent="1">
          <mxGeometry x="60" y="660" width="270" height="100" as="geometry" />
        </mxCell>
        <mxCell id="Dptyboa4_etvm0j7TFrH-29" value="&lt;b&gt;&lt;font style=&quot;&quot;&gt;&lt;font style=&quot;font-size: 16px;&quot;&gt;SERVICES&lt;/font&gt;&lt;br&gt;&lt;/font&gt;&lt;/b&gt;- Interact with models to get data&lt;br&gt;- Handle requests from controllers&lt;b&gt;&lt;font style=&quot;font-size: 12px;&quot;&gt;&lt;br&gt;&lt;/font&gt;&lt;/b&gt;" style="rounded=1;whiteSpace=wrap;html=1;absoluteArcSize=1;arcSize=14;strokeWidth=1;" vertex="1" parent="1">
          <mxGeometry x="60" y="490" width="270" height="100" as="geometry" />
        </mxCell>
        <mxCell id="Dptyboa4_etvm0j7TFrH-30" value="&lt;b&gt;&lt;font style=&quot;font-size: 16px;&quot;&gt;USER&lt;/font&gt;&lt;/b&gt;" style="rounded=1;whiteSpace=wrap;html=1;absoluteArcSize=1;arcSize=14;strokeWidth=1;" vertex="1" parent="1">
          <mxGeometry x="340" y="800" width="115" height="40" as="geometry" />
        </mxCell>
        <mxCell id="Dptyboa4_etvm0j7TFrH-31" value="&lt;b&gt;&lt;font style=&quot;font-size: 16px;&quot;&gt;MODEL&amp;nbsp;&lt;br&gt;&lt;/font&gt;&lt;/b&gt;&lt;font style=&quot;font-size: 12px;&quot;&gt;&lt;b style=&quot;&quot;&gt;-&amp;nbsp;&lt;/b&gt;interact with the database&lt;br&gt;&lt;/font&gt;&lt;font style=&quot;font-size: 12px;&quot;&gt;&lt;font style=&quot;font-size: 12px;&quot;&gt;-&amp;nbsp;&lt;/font&gt;Return data to services&lt;/font&gt;&lt;font style=&quot;font-weight: bold; font-size: 16px;&quot;&gt;&lt;br&gt;&lt;/font&gt;" style="rounded=1;whiteSpace=wrap;html=1;absoluteArcSize=1;arcSize=14;strokeWidth=1;" vertex="1" parent="1">
          <mxGeometry x="60" y="310" width="270" height="100" as="geometry" />
        </mxCell>
        <mxCell id="Dptyboa4_etvm0j7TFrH-35" value="&lt;b&gt;&lt;font style=&quot;font-size: 16px;&quot;&gt;DATABASE&lt;/font&gt;&lt;/b&gt;" style="shape=datastore;whiteSpace=wrap;html=1;" vertex="1" parent="1">
          <mxGeometry x="640" y="295" width="110" height="130" as="geometry" />
        </mxCell>
        <mxCell id="Dptyboa4_etvm0j7TFrH-41" value="" style="endArrow=classic;startArrow=classic;html=1;rounded=0;exitX=1.007;exitY=0.546;exitDx=0;exitDy=0;exitPerimeter=0;entryX=0.005;entryY=0.538;entryDx=0;entryDy=0;entryPerimeter=0;" edge="1" parent="1" source="Dptyboa4_etvm0j7TFrH-31" target="Dptyboa4_etvm0j7TFrH-35">
          <mxGeometry width="50" height="50" relative="1" as="geometry">
            <mxPoint x="410" y="430" as="sourcePoint" />
            <mxPoint x="460" y="380" as="targetPoint" />
          </mxGeometry>
        </mxCell>
        <mxCell id="Dptyboa4_etvm0j7TFrH-42" value="Interact" style="text;html=1;align=center;verticalAlign=middle;resizable=0;points=[];autosize=1;strokeColor=none;fillColor=none;" vertex="1" parent="1">
          <mxGeometry x="450" y="338" width="60" height="30" as="geometry" />
        </mxCell>
        <mxCell id="Dptyboa4_etvm0j7TFrH-43" value="" style="endArrow=classic;html=1;rounded=0;" edge="1" parent="1">
          <mxGeometry width="50" height="50" relative="1" as="geometry">
            <mxPoint x="240" y="490" as="sourcePoint" />
            <mxPoint x="240" y="410" as="targetPoint" />
          </mxGeometry>
        </mxCell>
        <mxCell id="Dptyboa4_etvm0j7TFrH-44" value="" style="endArrow=classic;html=1;rounded=0;exitX=0.371;exitY=1.008;exitDx=0;exitDy=0;exitPerimeter=0;" edge="1" parent="1" source="Dptyboa4_etvm0j7TFrH-31">
          <mxGeometry width="50" height="50" relative="1" as="geometry">
            <mxPoint x="210" y="430" as="sourcePoint" />
            <mxPoint x="159" y="490" as="targetPoint" />
          </mxGeometry>
        </mxCell>
        <mxCell id="Dptyboa4_etvm0j7TFrH-45" value="Response" style="text;html=1;align=center;verticalAlign=middle;resizable=0;points=[];autosize=1;strokeColor=none;fillColor=none;" vertex="1" parent="1">
          <mxGeometry x="80" y="430" width="80" height="30" as="geometry" />
        </mxCell>
        <mxCell id="Dptyboa4_etvm0j7TFrH-46" value="Request" style="text;html=1;align=center;verticalAlign=middle;resizable=0;points=[];autosize=1;strokeColor=none;fillColor=none;" vertex="1" parent="1">
          <mxGeometry x="240" y="430" width="70" height="30" as="geometry" />
        </mxCell>
        <mxCell id="Dptyboa4_etvm0j7TFrH-47" value="Response" style="text;html=1;align=center;verticalAlign=middle;resizable=0;points=[];autosize=1;strokeColor=none;fillColor=none;" vertex="1" parent="1">
          <mxGeometry x="80" y="610" width="80" height="30" as="geometry" />
        </mxCell>
        <mxCell id="Dptyboa4_etvm0j7TFrH-48" value="Request" style="text;html=1;align=center;verticalAlign=middle;resizable=0;points=[];autosize=1;strokeColor=none;fillColor=none;" vertex="1" parent="1">
          <mxGeometry x="240" y="610" width="70" height="30" as="geometry" />
        </mxCell>
        <mxCell id="Dptyboa4_etvm0j7TFrH-49" value="" style="endArrow=classic;html=1;rounded=0;exitX=0.371;exitY=1.008;exitDx=0;exitDy=0;exitPerimeter=0;" edge="1" parent="1">
          <mxGeometry width="50" height="50" relative="1" as="geometry">
            <mxPoint x="160" y="590" as="sourcePoint" />
            <mxPoint x="159" y="660" as="targetPoint" />
          </mxGeometry>
        </mxCell>
        <mxCell id="Dptyboa4_etvm0j7TFrH-50" value="" style="endArrow=classic;html=1;rounded=0;" edge="1" parent="1">
          <mxGeometry width="50" height="50" relative="1" as="geometry">
            <mxPoint x="239.43" y="660" as="sourcePoint" />
            <mxPoint x="239" y="590" as="targetPoint" />
          </mxGeometry>
        </mxCell>
        <mxCell id="Dptyboa4_etvm0j7TFrH-51" value="" style="endArrow=classic;html=1;rounded=0;" edge="1" parent="1">
          <mxGeometry width="50" height="50" relative="1" as="geometry">
            <mxPoint x="455" y="810" as="sourcePoint" />
            <mxPoint x="505" y="760" as="targetPoint" />
          </mxGeometry>
        </mxCell>
        <mxCell id="Dptyboa4_etvm0j7TFrH-52" value="See" style="text;html=1;align=center;verticalAlign=middle;resizable=0;points=[];autosize=1;strokeColor=none;fillColor=none;" vertex="1" parent="1">
          <mxGeometry x="480" y="778" width="40" height="30" as="geometry" />
        </mxCell>
        <mxCell id="Dptyboa4_etvm0j7TFrH-53" value="" style="endArrow=classic;html=1;rounded=0;entryX=0.818;entryY=0.994;entryDx=0;entryDy=0;entryPerimeter=0;" edge="1" parent="1" target="Dptyboa4_etvm0j7TFrH-28">
          <mxGeometry width="50" height="50" relative="1" as="geometry">
            <mxPoint x="340" y="810" as="sourcePoint" />
            <mxPoint x="390" y="760" as="targetPoint" />
          </mxGeometry>
        </mxCell>
        <mxCell id="Dptyboa4_etvm0j7TFrH-54" value="Request" style="text;html=1;align=center;verticalAlign=middle;resizable=0;points=[];autosize=1;strokeColor=none;fillColor=none;" vertex="1" parent="1">
          <mxGeometry x="250" y="778" width="70" height="30" as="geometry" />
        </mxCell>
        <mxCell id="Dptyboa4_etvm0j7TFrH-56" value="" style="endArrow=classic;html=1;rounded=0;entryX=0;entryY=0.5;entryDx=0;entryDy=0;exitX=1;exitY=0.5;exitDx=0;exitDy=0;" edge="1" parent="1" source="Dptyboa4_etvm0j7TFrH-28" target="Dptyboa4_etvm0j7TFrH-27">
          <mxGeometry width="50" height="50" relative="1" as="geometry">
            <mxPoint x="380" y="735" as="sourcePoint" />
            <mxPoint x="430" y="685" as="targetPoint" />
          </mxGeometry>
        </mxCell>
        <mxCell id="Dptyboa4_etvm0j7TFrH-57" value="Render" style="text;html=1;align=center;verticalAlign=middle;resizable=0;points=[];autosize=1;strokeColor=none;fillColor=none;" vertex="1" parent="1">
          <mxGeometry x="370" y="680" width="60" height="30" as="geometry" />
        </mxCell>
      </root>
    </mxGraphModel>
  </diagram>
  <diagram id="w-5KX8UNDlWNoXFrhjrz" name="Page-2">
    <mxGraphModel dx="1734" dy="1004" grid="1" gridSize="10" guides="1" tooltips="1" connect="1" arrows="1" fold="1" page="1" pageScale="1" pageWidth="850" pageHeight="1100" math="0" shadow="0">
      <root>
        <mxCell id="0" />
        <mxCell id="1" parent="0" />
        <mxCell id="UE23XblngZVuOv1bUCck-1" value="&lt;b&gt;VIEWS&lt;/b&gt;" style="shape=umlFrame;whiteSpace=wrap;html=1;pointerEvents=0;recursiveResize=0;container=1;collapsible=0;width=160;fillColor=#f8cecc;strokeColor=#b85450;" vertex="1" parent="1">
          <mxGeometry x="180" y="800" width="870" height="550" as="geometry" />
        </mxCell>
        <mxCell id="UE23XblngZVuOv1bUCck-3" value="Customer/patient&lt;br style=&quot;border-color: var(--border-color);&quot;&gt;&lt;br style=&quot;border-color: var(--border-color);&quot;&gt;&lt;br style=&quot;border-color: var(--border-color);&quot;&gt;&lt;br style=&quot;border-color: var(--border-color);&quot;&gt;&lt;br style=&quot;border-color: var(--border-color);&quot;&gt;&lt;br style=&quot;border-color: var(--border-color);&quot;&gt;&lt;br style=&quot;border-color: var(--border-color);&quot;&gt;&lt;br style=&quot;border-color: var(--border-color);&quot;&gt;&lt;br&gt;&lt;br&gt;" style="shape=card;whiteSpace=wrap;html=1;size=20;fillColor=#fff2cc;strokeColor=#d6b656;" vertex="1" parent="UE23XblngZVuOv1bUCck-1">
          <mxGeometry x="20" y="50" width="340" height="190" as="geometry" />
        </mxCell>
        <mxCell id="UE23XblngZVuOv1bUCck-2" value="HomePage" style="shape=card;whiteSpace=wrap;html=1;size=20;" vertex="1" parent="UE23XblngZVuOv1bUCck-1">
          <mxGeometry x="50" y="90" width="110" height="50" as="geometry" />
        </mxCell>
        <mxCell id="UE23XblngZVuOv1bUCck-7" value="BookingPage" style="shape=card;whiteSpace=wrap;html=1;size=20;" vertex="1" parent="UE23XblngZVuOv1bUCck-1">
          <mxGeometry x="220" y="90" width="110" height="50" as="geometry" />
        </mxCell>
        <mxCell id="UE23XblngZVuOv1bUCck-8" value="DetailDoctorView" style="shape=card;whiteSpace=wrap;html=1;size=20;" vertex="1" parent="UE23XblngZVuOv1bUCck-1">
          <mxGeometry x="50" y="170" width="110" height="50" as="geometry" />
        </mxCell>
        <mxCell id="UE23XblngZVuOv1bUCck-9" value="Doctor&lt;br&gt;&lt;br&gt;&lt;br&gt;&lt;br&gt;&lt;br&gt;&lt;br&gt;&lt;br&gt;" style="shape=card;whiteSpace=wrap;html=1;size=20;fillColor=#fff2cc;strokeColor=#d6b656;" vertex="1" parent="UE23XblngZVuOv1bUCck-1">
          <mxGeometry x="510" y="45" width="340" height="140" as="geometry" />
        </mxCell>
        <mxCell id="UE23XblngZVuOv1bUCck-10" value="PatientView" style="shape=card;whiteSpace=wrap;html=1;size=20;" vertex="1" parent="UE23XblngZVuOv1bUCck-1">
          <mxGeometry x="540" y="100" width="110" height="50" as="geometry" />
        </mxCell>
        <mxCell id="UE23XblngZVuOv1bUCck-11" value="Drug-Warehouse" style="shape=card;whiteSpace=wrap;html=1;size=20;" vertex="1" parent="UE23XblngZVuOv1bUCck-1">
          <mxGeometry x="700" y="100" width="110" height="50" as="geometry" />
        </mxCell>
        <mxCell id="UE23XblngZVuOv1bUCck-12" value="Admin&lt;br&gt;&lt;br&gt;&lt;br&gt;&lt;br&gt;&lt;br&gt;&lt;br&gt;&lt;br&gt;&lt;br&gt;&lt;br&gt;" style="shape=card;whiteSpace=wrap;html=1;size=20;fillColor=#fff2cc;strokeColor=#d6b656;" vertex="1" parent="UE23XblngZVuOv1bUCck-1">
          <mxGeometry x="30" y="330" width="330" height="190" as="geometry" />
        </mxCell>
        <mxCell id="UE23XblngZVuOv1bUCck-13" value="feedback" style="shape=card;whiteSpace=wrap;html=1;size=20;" vertex="1" parent="UE23XblngZVuOv1bUCck-1">
          <mxGeometry x="60" y="380" width="110" height="50" as="geometry" />
        </mxCell>
        <mxCell id="UE23XblngZVuOv1bUCck-14" value="Employee Manager&lt;br&gt;View" style="shape=card;whiteSpace=wrap;html=1;size=20;" vertex="1" parent="UE23XblngZVuOv1bUCck-1">
          <mxGeometry x="210" y="380" width="120" height="50" as="geometry" />
        </mxCell>
        <mxCell id="UE23XblngZVuOv1bUCck-15" value="Pharmacist&amp;nbsp;&lt;br&gt;&lt;br&gt;&lt;br&gt;&lt;br&gt;&lt;br&gt;&lt;br&gt;&lt;br&gt;&lt;br&gt;&lt;br&gt;&lt;br&gt;" style="shape=card;whiteSpace=wrap;html=1;size=20;fillColor=#fff2cc;strokeColor=#d6b656;" vertex="1" parent="UE23XblngZVuOv1bUCck-1">
          <mxGeometry x="520" y="330" width="330" height="190" as="geometry" />
        </mxCell>
        <mxCell id="UE23XblngZVuOv1bUCck-28" value="Dashboard" style="shape=card;whiteSpace=wrap;html=1;size=20;" vertex="1" parent="UE23XblngZVuOv1bUCck-1">
          <mxGeometry x="60" y="450" width="110" height="50" as="geometry" />
        </mxCell>
        <mxCell id="UE23XblngZVuOv1bUCck-29" value="PatientView" style="shape=card;whiteSpace=wrap;html=1;size=20;" vertex="1" parent="UE23XblngZVuOv1bUCck-1">
          <mxGeometry x="550" y="380" width="110" height="50" as="geometry" />
        </mxCell>
        <mxCell id="UE23XblngZVuOv1bUCck-30" value="Drug-Warehouse" style="shape=card;whiteSpace=wrap;html=1;size=20;" vertex="1" parent="UE23XblngZVuOv1bUCck-1">
          <mxGeometry x="720" y="380" width="110" height="50" as="geometry" />
        </mxCell>
        <mxCell id="UE23XblngZVuOv1bUCck-31" value="Invoice" style="shape=card;whiteSpace=wrap;html=1;size=20;" vertex="1" parent="UE23XblngZVuOv1bUCck-1">
          <mxGeometry x="550" y="450" width="110" height="50" as="geometry" />
        </mxCell>
        <mxCell id="UE23XblngZVuOv1bUCck-32" value="LoggedView" style="shape=card;whiteSpace=wrap;html=1;size=20;fillColor=#fff2cc;strokeColor=#d6b656;" vertex="1" parent="UE23XblngZVuOv1bUCck-1">
          <mxGeometry x="410" y="230" width="140" height="60" as="geometry" />
        </mxCell>
        <mxCell id="UE23XblngZVuOv1bUCck-33" value="&amp;lt;&amp;lt;extend&amp;gt;&amp;gt;" style="html=1;verticalAlign=bottom;labelBackgroundColor=none;endArrow=open;endFill=0;dashed=1;rounded=0;" edge="1" parent="UE23XblngZVuOv1bUCck-1" source="UE23XblngZVuOv1bUCck-9" target="UE23XblngZVuOv1bUCck-32">
          <mxGeometry width="160" relative="1" as="geometry">
            <mxPoint x="420" y="300" as="sourcePoint" />
            <mxPoint x="580" y="300" as="targetPoint" />
          </mxGeometry>
        </mxCell>
        <mxCell id="UE23XblngZVuOv1bUCck-34" value="&amp;lt;&amp;lt;extend&amp;gt;&amp;gt;" style="html=1;verticalAlign=bottom;labelBackgroundColor=none;endArrow=open;endFill=0;dashed=1;rounded=0;" edge="1" parent="UE23XblngZVuOv1bUCck-1" source="UE23XblngZVuOv1bUCck-15" target="UE23XblngZVuOv1bUCck-32">
          <mxGeometry width="160" relative="1" as="geometry">
            <mxPoint x="593" y="195" as="sourcePoint" />
            <mxPoint x="560" y="290" as="targetPoint" />
          </mxGeometry>
        </mxCell>
        <mxCell id="UE23XblngZVuOv1bUCck-35" value="&amp;lt;&amp;lt;extend&amp;gt;&amp;gt;" style="html=1;verticalAlign=bottom;labelBackgroundColor=none;endArrow=open;endFill=0;dashed=1;rounded=0;exitX=1;exitY=0;exitDx=0;exitDy=0;exitPerimeter=0;" edge="1" parent="UE23XblngZVuOv1bUCck-1" source="UE23XblngZVuOv1bUCck-12" target="UE23XblngZVuOv1bUCck-32">
          <mxGeometry width="160" relative="1" as="geometry">
            <mxPoint x="577" y="340" as="sourcePoint" />
            <mxPoint x="527" y="300" as="targetPoint" />
          </mxGeometry>
        </mxCell>
      </root>
    </mxGraphModel>
  </diagram>
  <diagram id="THtA2_h-i91FRto-ERtb" name="Page-3">
    <mxGraphModel dx="867" dy="502" grid="1" gridSize="10" guides="1" tooltips="1" connect="1" arrows="1" fold="1" page="1" pageScale="1" pageWidth="850" pageHeight="1100" math="0" shadow="0">
      <root>
        <mxCell id="0" />
        <mxCell id="1" parent="0" />
        <mxCell id="8xQsIUBW3MFqVcBScjuv-1" value="&lt;b&gt;CONTROLLER&lt;/b&gt;" style="shape=umlFrame;whiteSpace=wrap;html=1;pointerEvents=0;recursiveResize=0;container=1;collapsible=0;width=160;fillColor=#dae8fc;strokeColor=#6c8ebf;" vertex="1" parent="1">
          <mxGeometry x="20" y="20" width="820" height="470" as="geometry" />
        </mxCell>
        <mxCell id="1RweRiw7JOfSxncRjSsr-1" value="&lt;div&gt;HTTP request processing&lt;/div&gt;&lt;div&gt;Application-specific logic&lt;/div&gt;&lt;div&gt;Data validation&lt;/div&gt;" style="shape=card;whiteSpace=wrap;html=1;size=20;" vertex="1" parent="8xQsIUBW3MFqVcBScjuv-1">
          <mxGeometry x="60" y="60" width="170" height="70" as="geometry" />
        </mxCell>
        <mxCell id="1RweRiw7JOfSxncRjSsr-2" value="Login validation" style="shape=card;whiteSpace=wrap;html=1;size=20;" vertex="1" parent="8xQsIUBW3MFqVcBScjuv-1">
          <mxGeometry x="290" y="60" width="170" height="70" as="geometry" />
        </mxCell>
        <mxCell id="1RweRiw7JOfSxncRjSsr-3" value="Booking validation" style="shape=card;whiteSpace=wrap;html=1;size=20;" vertex="1" parent="8xQsIUBW3MFqVcBScjuv-1">
          <mxGeometry x="500" y="60" width="170" height="70" as="geometry" />
        </mxCell>
        <mxCell id="1RweRiw7JOfSxncRjSsr-4" value="" style="shape=card;whiteSpace=wrap;html=1;size=20;" vertex="1" parent="8xQsIUBW3MFqVcBScjuv-1">
          <mxGeometry x="500" y="170" width="170" height="70" as="geometry" />
        </mxCell>
        <mxCell id="1RweRiw7JOfSxncRjSsr-5" value="" style="shape=card;whiteSpace=wrap;html=1;size=20;" vertex="1" parent="8xQsIUBW3MFqVcBScjuv-1">
          <mxGeometry x="290" y="170" width="170" height="70" as="geometry" />
        </mxCell>
      </root>
    </mxGraphModel>
  </diagram>
</mxfile>
